<mxfile host="app.diagrams.net" modified="2021-03-10T17:27:52.642Z" agent="5.0 (Windows NT 10.0; Win64; x64) AppleWebKit/537.36 (KHTML, like Gecko) Chrome/88.0.4324.190 Safari/537.36" etag="OcNHvgqFLYEAs_IHmHe2" version="14.4.6" type="github">
  <diagram id="9V2f18ZkdZNDSXqRM2bW" name="Page-1">
    <mxGraphModel dx="1038" dy="585" grid="1" gridSize="10" guides="1" tooltips="1" connect="1" arrows="1" fold="1" page="1" pageScale="1" pageWidth="827" pageHeight="1169" math="0" shadow="0">
      <root>
        <mxCell id="0" />
        <mxCell id="1" parent="0" />
        <mxCell id="NgXtbRR_5jfCV0M7sHjM-7" value="" style="html=1;" vertex="1" parent="1">
          <mxGeometry x="200" y="170" width="450" height="220" as="geometry" />
        </mxCell>
        <mxCell id="NgXtbRR_5jfCV0M7sHjM-5" style="edgeStyle=orthogonalEdgeStyle;rounded=0;orthogonalLoop=1;jettySize=auto;html=1;entryX=0;entryY=0;entryDx=20;entryDy=0;entryPerimeter=0;" edge="1" parent="1" source="NgXtbRR_5jfCV0M7sHjM-1" target="NgXtbRR_5jfCV0M7sHjM-3">
          <mxGeometry relative="1" as="geometry" />
        </mxCell>
        <mxCell id="NgXtbRR_5jfCV0M7sHjM-6" style="edgeStyle=orthogonalEdgeStyle;rounded=0;orthogonalLoop=1;jettySize=auto;html=1;entryX=0;entryY=0;entryDx=65.5;entryDy=14;entryPerimeter=0;" edge="1" parent="1" source="NgXtbRR_5jfCV0M7sHjM-1" target="NgXtbRR_5jfCV0M7sHjM-2">
          <mxGeometry relative="1" as="geometry" />
        </mxCell>
        <mxCell id="NgXtbRR_5jfCV0M7sHjM-1" value="Web" style="shape=folder;fontStyle=1;spacingTop=10;tabWidth=40;tabHeight=14;tabPosition=left;html=1;" vertex="1" parent="1">
          <mxGeometry x="319" y="180" width="201" height="100" as="geometry" />
        </mxCell>
        <mxCell id="NgXtbRR_5jfCV0M7sHjM-2" value="Persistencia" style="shape=folder;fontStyle=1;spacingTop=10;tabWidth=40;tabHeight=14;tabPosition=left;html=1;" vertex="1" parent="1">
          <mxGeometry x="430" y="320" width="91" height="50" as="geometry" />
        </mxCell>
        <mxCell id="NgXtbRR_5jfCV0M7sHjM-3" value="GestiÃ³n" style="shape=folder;fontStyle=1;spacingTop=10;tabWidth=40;tabHeight=14;tabPosition=left;html=1;" vertex="1" parent="1">
          <mxGeometry x="319" y="320" width="91" height="50" as="geometry" />
        </mxCell>
      </root>
    </mxGraphModel>
  </diagram>
</mxfile>
